# xmcd
#
# Track frame offsets:
#	150
#	13134
#	26354
#	37221
#	48087
#	59234
#	71602
#	84777
#	97043
#	109938
#	121678
#	134036
#	146289
#	158192
#	170982
#	183831
#	197093
#	208715
#	221807
#	233340
#
# Disc length: 3267 seconds
# Revision: 0
# Processed by: cddbd v1.5.2PL0 Copyright (c) Steve Scherf et al.
# Submitted via: dBpowerAMP V12.0
#
DISCID=230cc114
DTITLE=Hank Williams - 60 Essential Recordings
DYEAR=1952
DGENRE=Classic Country
TTITLE0=Jambalaya On The Bayou
TTITLE1=Hey Good Lookin
TTITLE2=Ill Never Get Out Of This World Alive
TTITLE3=Why Dont You Love Me
TTITLE4=Crazy Heart
TTITLE5=Half As Much
TTITLE6=Wedding Bells
TTITLE7=Lost Highway
TTITLE8=Im A Long Gone Daddy
TTITLE9=A Mansion On The Hill
TTITLE10=My Sweet Love Aint Around
TTITLE11=The Blues Come Around
TTITLE12=Ill Be A Bachelor Til I Die
TTITLE13=Therell Be No Teardrops Tonight
TTITLE14=May You Never Be Alone
TTITLE15=Mind Your Own Business
TTITLE16=My Son Calls Another Man Daddy
TTITLE17=A House Without Love
TTITLE18=Nobodys Lonesome For Me
TTITLE19=Dear John
EXTD=
EXTT0=
EXTT1=
EXTT2=
EXTT3=
EXTT4=
EXTT5=
EXTT6=
EXTT7=
EXTT8=
EXTT9=
EXTT10=
EXTT11=
EXTT12=
EXTT13=
EXTT14=
EXTT15=
EXTT16=
EXTT17=
EXTT18=
EXTT19=
PLAYORDER=
